<?xml version="1.0" encoding="utf-8"?>
<!-- Generator: Adobe Illustrator 24.1.2, SVG Export Plug-In . SVG Version: 6.00 Build 0)  -->
<svg version="1.1" id="Слой_1" xmlns="http://www.w3.org/2000/svg" xmlns:xlink="http://www.w3.org/1999/xlink" x="0px" y="0px"
	 viewBox="0 0 579 134" style="enable-background:new 0 0 579 134;" xml:space="preserve">
<style type="text/css">
	.st0{fill:#93AECF;}
</style>
<g id="Page-1">
	<g id="Group-2" transform="translate(0.000000, 0.000000)">
		<g>
			<path id="Combined-Shape" class="st0" d="M110.2,13.7L68.8,66H0l41.4-52.3H110.2z M90,23.7H46.3L20,56.7h43.7L90,23.7z"/>
			<path id="Combined-Shape_1_" class="st0" d="M68.8,73.7l41.4,52.4H41.4L0,73.7H68.8z M63.7,83.7H20l26.3,33H90L63.7,83.7z"/>
			<polygon id="Path-10" class="st0" points="119.3,21.7 157.7,69.5 119.4,117.5 112.5,108.7 139.8,74.7 85.1,74.7 81,69.5 
				85.1,64.6 140.9,64.6 112.2,30.7 			"/>
		</g>
		<g>
			<path id="Shape" class="st0" d="M243,50.5c0,0.5,0.1,1,0,1.4c0,0.5,0,0.9-0.1,1.4l-3.8,47.5h-13.6l-1.6-5.4
				c-2.2,1.7-4.8,3.2-7.9,4.6c-3.1,1.4-6,2.1-8.8,2.1h-3.3c-1.1,0-2.4-0.2-4.1-0.6c-1.6-0.4-3.3-1.1-4.9-2.1c-1.6-1-3-2.5-4.2-4.4
				c-1.2-1.9-1.9-4.3-2.2-7.2c-0.1-0.7-0.1-1.4,0-2.1c0-0.8,0.1-1.7,0.2-2.9L189,79c0.1-1.5,0.4-3.2,0.8-5.2c0.4-2,1.3-3.8,2.7-5.6
				c1.4-1.8,3.4-3.2,6.1-4.5c2.7-1.2,6.4-1.8,11.1-1.8h14.8l0.3-3.1c0.1-0.4,0.1-0.8,0.1-1.2c0-0.4,0-0.7,0-0.9
				c-0.1-0.8-0.3-1.3-0.9-1.6c-0.5-0.3-1-0.4-1.5-0.4h-23.1l1.1-14.6h30.3c4.2,0,7.2,1,9.1,3C241.8,45.1,242.8,47.6,243,50.5
				L243,50.5z M208.4,74c-0.7,0-1.2,0.2-1.7,0.6s-0.8,1-0.9,1.8l-0.6,5.2c-0.1,0.8-0.1,1.6-0.1,2.3c0.1,0.8,0.4,1.6,1,2.5
				c0.6,0.9,1.7,1.3,3.4,1.3c2,0,4.2-0.3,6.7-0.9s4.7-1.3,6.6-2.3l0.7-10.4L208.4,74L208.4,74z M309.9,55.5c0.1,1.8,0.1,3.5,0,5.3
				l-1.5,19.4c-0.5,6.3-2.4,11.3-5.8,15.1c-3.3,3.8-8.2,5.7-14.5,5.7h-20.9l-1.4,17h-17.9l6.2-77.9h14.6l1.7,4.5
				c1.4-0.6,3.1-1.2,5-1.9s3.9-1.3,6-1.9c2.1-0.5,4.2-1,6.3-1.4c2.1-0.4,4.1-0.6,6-0.6c2.4,0,4.5,0.4,6.5,1.3c1.9,0.9,3.6,2.1,5,3.6
				c1.4,1.5,2.5,3.3,3.3,5.3C309.2,51,309.7,53.2,309.9,55.5L309.9,55.5z M292.1,60.6c-0.1-1.4-0.5-2.6-1.3-3.5
				c-0.8-0.9-2.2-1.3-4.2-1.3c-0.7,0-1.7,0.1-3.1,0.3c-1.4,0.2-2.9,0.4-4.4,0.6c-1.5,0.3-3.1,0.5-4.6,0.8s-2.8,0.6-3.8,0.8
				l-2.2,26.8h19.4c1.6,0,2.4-0.8,2.5-2.4l1.5-19.2c0.1-0.4,0.1-0.9,0.1-1.5C292.1,61.4,292.1,60.9,292.1,60.6L292.1,60.6z
				 M334.8,100.9h-18.4l4.9-60.9h18.4L334.8,100.9L334.8,100.9z M340.8,32.8h-19.4l0.9-11.1h19.4L340.8,32.8L340.8,32.8z
				 M384.9,55.9h-2.3c-3,0-5.9,0.3-8.7,1c-2.8,0.7-5.2,1.3-7.1,2l-3.4,42h-18.5l4.9-60.9h15.1l1.6,5c1.3-0.7,2.7-1.4,4.4-2.1
				c1.6-0.7,3.3-1.4,5.1-2c1.8-0.6,3.5-1.2,5.3-1.6c1.8-0.4,3.5-0.6,5-0.6L384.9,55.9L384.9,55.9z M448.7,80.2
				c-0.4,6.1-2.3,11.1-5.6,15c-3.3,3.9-8.1,5.8-14.5,5.8h-24.5c-4.3,0-7.7-1.2-10.1-3.6c-2.4-2.4-3.8-5.7-4.2-10
				c-0.1-0.8-0.1-1.4,0-2.1c0-0.6,0.1-1.8,0.2-3.5l1.5-21c0.2-2.9,0.7-5.7,1.7-8.2c0.9-2.6,2.2-4.8,3.9-6.6c1.7-1.8,3.8-3.3,6.3-4.3
				s5.4-1.6,8.8-1.6h24.4c4.2,0,7.5,1.4,9.8,4.2c2.3,2.8,3.6,6.4,4,10.6c0,0.6,0.1,1.3,0.1,2c0,0.8,0,1.5-0.1,2.1L448.7,80.2
				L448.7,80.2z M432.7,59.8c-0.1-1.2-0.5-2.1-1.4-2.7c-0.8-0.6-1.8-0.9-3-0.9h-16.6c-1.5,0-2.3,0.8-2.4,2.4l-1.4,19
				c-0.1,0.4-0.1,0.9-0.1,1.4s0,1,0,1.3c0.1,1.1,0.5,2,1.2,2.6c0.7,0.7,1.8,1,3.2,1h16.4c1.6,0,2.4-0.8,2.5-2.4l1.5-19.7
				c0.1-0.4,0.1-0.8,0.1-1.2C432.7,60.2,432.7,60,432.7,59.8L432.7,59.8z M517.5,53.9c0.1,1,0.1,2.1,0.1,3.2c0,1.1-0.1,2.4-0.1,3.7
				l-3.1,40.1h-18l2.8-36.2c0.1-1.5,0.2-2.7,0.1-3.5c-0.3-3.6-2-5.4-5.2-5.4c-2.1,0-4.6,0.3-7.6,0.8s-5.7,1.1-8,1.7l-3.6,42.6H457
				l4.9-60.9h14.6l1.7,4.5c1.8-0.8,3.7-1.5,5.7-2.2s4.1-1.3,6.2-1.8s4.1-0.9,6-1.3c2-0.3,3.7-0.5,5.3-0.5s3.2,0.1,5,0.4
				c1.8,0.3,3.5,0.9,5.1,1.9c1.6,1,3,2.5,4.1,4.5C516.6,47.6,517.3,50.4,517.5,53.9L517.5,53.9z M578.7,54c0.1,0.7,0.1,1.4,0,2.1
				c0,0.7-0.1,1.3-0.1,1.8l-0.5,4.9c-0.4,3.5-1.9,6.4-4.7,8.5c-2.7,2.1-6.1,3.6-10.1,4.3c-1.1,0.3-2.6,0.5-4.5,0.6
				c-1.9,0.2-3.8,0.3-5.9,0.4c-2.1,0.1-4,0.2-5.7,0.3c-1.8,0.1-3.1,0.1-3.9,0.1l-0.2,2.6c0,0.5-0.1,0.9,0,1.3l0.1,0.8
				c0.1,1.2,0.5,2.2,1.3,3.1c0.8,0.9,2.2,1.4,4.2,1.4c2.1,0,4.4-0.1,7-0.3c2.6-0.2,5.2-0.5,7.9-0.8c2.7-0.3,5.2-0.6,7.6-1.1
				c2.4-0.4,4.6-0.9,6.4-1.4l-1.1,13.5c-1.8,0.8-3.9,1.5-6.3,2.2c-2.5,0.7-5.1,1.3-7.8,1.9c-2.8,0.5-5.5,1-8.3,1.3
				c-2.8,0.3-5.3,0.5-7.6,0.5c-1.6,0-3.6-0.1-6-0.4c-2.3-0.3-4.6-0.9-6.8-2.1c-2.2-1.1-4.1-2.8-5.7-5c-1.6-2.2-2.6-5.2-2.9-9.2
				c-0.1-0.8-0.1-1.7-0.1-2.6s0.1-1.8,0.2-2.8l1.5-19.4c0.2-2.8,0.7-5.4,1.6-7.9c0.9-2.5,2.2-4.7,3.9-6.6s3.8-3.5,6.4-4.6
				c2.6-1.1,5.6-1.7,9.3-1.7h12.9c3.7,0,6.7,0.5,9,1.5s4,2.2,5.3,3.6c1.3,1.4,2.2,2.9,2.7,4.5C578.3,51.3,578.6,52.8,578.7,54
				L578.7,54z M550.3,54.7c-1.1,0-2.2,0.4-3.4,1.1c-1.2,0.7-1.9,2-2.1,3.8l-0.7,6.7c0.5,0,1.4,0,2.8-0.1c1.4,0,2.9-0.1,4.5-0.3
				c1.6-0.1,3.1-0.3,4.5-0.4c1.4-0.1,2.5-0.3,3.1-0.4c1.7-0.4,2.8-0.9,3.3-1.5c0.5-0.6,0.9-1.2,1.1-1.8c0.1-0.3,0.2-0.8,0.3-1.5
				c0.1-0.7,0.1-1.2,0.1-1.6c-0.1-1.2-0.5-2.1-1.3-2.9c-0.8-0.8-1.8-1.1-3.2-1.1H550.3L550.3,54.7z"/>
		</g>
	</g>
</g>
</svg>
