<?xml version="1.0" encoding="utf-8"?>
<!-- Generator: Adobe Illustrator 24.1.2, SVG Export Plug-In . SVG Version: 6.00 Build 0)  -->
<svg version="1.1" id="Слой_1" xmlns="http://www.w3.org/2000/svg" xmlns:xlink="http://www.w3.org/1999/xlink" x="0px" y="0px"
	 viewBox="0 0 727.6 164.2" style="enable-background:new 0 0 727.6 164.2;" xml:space="preserve">
<style type="text/css">
	.st0{fill:none;stroke:#1D1D1B;stroke-linejoin:round;stroke-miterlimit:10;}
	.st1{fill:#BCBEC0;}
	.st2{opacity:0.35;}
	.st3{opacity:0.2;}
	.st4{fill:none;stroke:#1D1D1B;stroke-width:0.5;stroke-linejoin:round;stroke-miterlimit:10;}
</style>
<g>
	<path class="st0" d="M275.4,177.7h2.6v-4.1l2.9-0.4c5-1.4,5-5.4,5-5.4c0-4.7-3.6-5.1-3.6-5.1c1.3-0.7,3.6-4.1,1.1-6.6
		c-2.4-2.3-5.4-1.9-5.4-1.9v-4.4h-2.6v4.4h-1.9v-4.4h-2.7v4.5h-5.5v2.8h3.5v13.7l-3,0v3.2h5v3.7h2.7v-4.1h1.9V177.7z"/>
	<path class="st0" d="M273.5,162.3h2.4c0,0,3.8-0.3,3.4-2.9c-0.3-2.6-3.4-2.4-3.4-2.4h-2.4V162.3z"/>
	<path class="st0" d="M273.5,170.8h3.9c0,0,4-0.7,3.4-3.6c-0.5-2.4-3.4-2.4-3.4-2.4h-3.9V170.8z"/>
</g>
<g>
	<g>
		<g>
			<path class="st1" d="M134.6,145.3c0,0-0.1-0.1-0.1-0.2l-45.9,13.6l-20.2-9.7c-0.1,0.2-0.3,0.3-0.4,0.4l20.7,10.2l46.3-14.1
				C134.8,145.5,134.7,145.4,134.6,145.3z"/>
			<path class="st1" d="M228.4,129.4L203.8,110l-0.2-0.2l-42.5,57.8L142.5,144c0,0.2-0.1,0.5-0.2,0.7l18.8,23.9l42.6-58l24.3,19.3
				C228.1,129.7,228.3,129.6,228.4,129.4z"/>
			<path class="st1" d="M384,165.5l0.1,0.2l52.4-14.4l41.3,13.8c0-0.2,0-0.4,0.1-0.6l-41.3-13.8l-0.1,0L384.4,165l-49.3-27.6l0,0
				c-0.1,0.2,0.4-1.1-0.4,0.7"/>
			<path class="st1" d="M586.4,147.4L569,139l-54.5-15.9l-28.6,38.9c0.1,0.1,0.3,0.3,0.4,0.5l28.7-39l0,0l54.3,16.4l16.9,8.1
				C586.2,147.7,586.3,147.5,586.4,147.4z"/>
			<path class="st1" d="M642.6,179.7l-22.9-9.6l-25-17.8c-0.1,0.2-0.2,0.3-0.4,0.5l25,17.8l23.1,9.7
				C642.4,180.1,642.5,179.9,642.6,179.7z"/>
			<path class="st1" d="M721.4,176l29.6-16.4l-0.3-0.5l-29.6,16.4C721.2,175.6,721.3,175.8,721.4,176z"/>
			<path class="st1" d="M714.2,174.1l-29-36.3L651,177c0.1,0.1,0.3,0.3,0.4,0.5l33.8-38.7l28.6,35.8
				C713.9,174.4,714,174.2,714.2,174.1z"/>
			<path class="st1" d="M326.1,134.5l-56.3-16.7l-0.2-0.1l-32.2,13.8c0.2,0.1,0.3,0.7,0.5,0.8l32.1-13.9l55.9,16.6
				C325.8,134.9,326,134.7,326.1,134.5z"/>
			<path class="st1" d="M60.5,142.6c0-0.1,0.1-0.1,0.1-0.2L32,148.9l-39,53.4l0.5,0.4l38.6-53l28.2-6.8
				C60.4,142.8,60.4,142.7,60.5,142.6z"/>
		</g>
		<circle class="st1" cx="32" cy="148.9" r="4.9"/>
		<g>
			<path class="st1" d="M64.8,150.8c-3-0.1-5.3-2.5-5.3-5.5s2.5-5.3,5.5-5.3c3,0.1,5.3,2.5,5.3,5.5
				C70.2,148.5,67.8,150.9,64.8,150.8z M65,141c-2.5-0.1-4.5,1.9-4.6,4.4c-0.1,2.5,1.9,4.5,4.4,4.6c2.5,0.1,4.5-1.9,4.6-4.4
				C69.5,143.1,67.5,141,65,141z"/>
		</g>
		<g>
			<path class="st1" d="M138.1,147.1c-2.8-0.1-5.1-2.4-5-5.3s2.4-5.1,5.3-5s5.1,2.4,5,5.3S140.9,147.2,138.1,147.1z M138.3,137.7
				c-2.4-0.1-4.3,1.8-4.4,4.2c-0.1,2.4,1.8,4.3,4.2,4.4c2.4,0.1,4.3-1.8,4.4-4.2C142.5,139.7,140.7,137.7,138.3,137.7z"/>
		</g>
		<g>
			<path class="st1" d="M232.5,137.4c-2.8-0.1-5.1-2.4-5-5.3s2.4-5.1,5.3-5c2.8,0.1,5.1,2.4,5,5.3S235.3,137.4,232.5,137.4z
				 M232.7,127.9c-2.4-0.1-4.3,1.8-4.4,4.2c-0.1,2.4,1.8,4.3,4.2,4.4c2.4,0.1,4.3-1.8,4.4-4.2C237,130,235.1,128,232.7,127.9z"/>
		</g>
		<g>
			<path class="st1" d="M329.9,142.5c-2.8-0.1-5.1-2.4-5-5.3s2.4-5.1,5.3-5s5.1,2.4,5,5.3S332.7,142.5,329.9,142.5z M330.1,133
				c-2.4-0.1-4.3,1.8-4.4,4.2c-0.1,2.4,1.8,4.3,4.2,4.4c2.4,0.1,4.3-1.8,4.4-4.2C334.3,135,332.4,133.1,330.1,133z"/>
		</g>
		<g>
			<path class="st1" d="M482.5,170.5c-2.8-0.1-5.1-2.4-5-5.3s2.4-5.1,5.3-5c2.8,0.1,5.1,2.4,5,5.3
				C487.7,168.3,485.3,170.5,482.5,170.5z M482.7,161c-2.4-0.1-4.3,1.8-4.4,4.2c-0.1,2.4,1.8,4.3,4.2,4.4c2.4,0.1,4.3-1.8,4.4-4.2
				C486.9,163,485,161.1,482.7,161z"/>
		</g>
		<g>
			<path class="st1" d="M590.7,154.6c-2.8-0.1-5.1-2.4-5-5.3s2.4-5.1,5.3-5s5.1,2.4,5,5.3S593.6,154.6,590.7,154.6z M590.9,145.1
				c-2.4-0.1-4.3,1.8-4.4,4.2c-0.1,2.4,1.8,4.3,4.2,4.4c2.4,0.1,4.3-1.8,4.4-4.2C595.2,147.1,593.3,145.2,590.9,145.1z"/>
		</g>
		<g>
			<path class="st1" d="M647.2,185.6c-2.8-0.1-5.1-2.4-5-5.3s2.4-5.1,5.3-5s5.1,2.4,5,5.3S650,185.7,647.2,185.6z M647.4,176.1
				c-2.4-0.1-4.3,1.8-4.4,4.2c-0.1,2.4,1.8,4.3,4.2,4.4c2.4,0.1,4.3-1.8,4.4-4.2C651.7,178.2,649.8,176.2,647.4,176.1z"/>
		</g>
		<g>
			<path class="st1" d="M717,183c-2.8-0.1-5.1-2.4-5-5.3s2.4-5.1,5.3-5s5.1,2.4,5,5.3S719.9,183.1,717,183z M717.3,173.6
				c-2.4-0.1-4.3,1.8-4.4,4.2c-0.1,2.4,1.8,4.3,4.2,4.4c2.4,0.1,4.3-1.8,4.4-4.2C721.5,175.6,719.6,173.6,717.3,173.6z"/>
		</g>
		<path class="st1" d="M92.4,158.8c0,2.1-1.8,3.8-3.9,3.7c-2.1,0-3.8-1.8-3.7-3.9c0-2.1,1.8-3.8,3.9-3.7
			C90.8,155,92.5,156.7,92.4,158.8z"/>
		<path class="st1" d="M164.9,167.7c0,2.1-1.8,3.8-3.9,3.7c-2.1,0-3.8-1.8-3.7-3.9c0-2.1,1.8-3.8,3.9-3.7
			C163.3,163.9,164.9,165.6,164.9,167.7z"/>
		<path class="st1" d="M207.4,110.6c0,2.1-1.8,3.8-3.9,3.7c-2.1,0-3.8-1.8-3.7-3.9c0-2.1,1.8-3.8,3.9-3.7
			C205.8,106.8,207.5,108.5,207.4,110.6z"/>
		<path class="st1" d="M273.5,118.8c0,2.1-1.8,3.8-3.9,3.7c-2.1,0-3.8-1.8-3.7-3.9c0-2.1,1.8-4.8,3.9-4.7
			C271.9,113.9,273.5,116.7,273.5,118.8z"/>
		<path class="st1" d="M388,165.4c0,2.1-1.8,3.8-3.9,3.7c-2.1,0-3.8-1.8-3.7-3.9c0-2.1,1.8-3.8,3.9-3.7
			C386.4,161.6,388.1,163.3,388,165.4z"/>
		<path class="st1" d="M573.6,140.8c0,2.1-1.8,3.8-3.9,3.7c-2.1,0-3.8-1.8-3.7-3.9c0-2.1,1.8-3.8,3.9-3.7
			C572,136.9,573.7,138.7,573.6,140.8z"/>
		<path class="st1" d="M622.7,169.8c0,2.1-1.8,3.8-3.9,3.7c-2.1,0-3.8-1.8-3.7-3.9c0-2.1,1.8-3.8,3.9-3.7
			C621.1,166,622.8,167.7,622.7,169.8z"/>
		<path class="st1" d="M689.2,139.5c0,2.1-1.8,3.8-3.9,3.7c-2.1,0-3.8-1.8-3.7-3.9c0-2.1,1.8-3.8,3.9-3.7
			C687.5,135.6,689.2,137.4,689.2,139.5z"/>
		
			<ellipse transform="matrix(0.9313 -0.3644 0.3644 0.9313 -24.8215 169.6806)" class="st1" cx="437.3" cy="150.6" rx="4.6" ry="4.6"/>
		
			<ellipse transform="matrix(2.171302e-02 -0.9998 0.9998 2.171302e-02 380.6235 633.6554)" class="st1" cx="514.1" cy="122.3" rx="4.6" ry="4.6"/>
	</g>
	<g class="st2">
		<g>
			<path class="st1" d="M549.9,131.9c0,0,0.1-0.1,0.1-0.1l42.5,41.8l13.4-21.8c0.1,0.1,0.2,0.2,0.4,0.3l-13.7,22.3l-42.9-42.2
				C549.8,132,549.9,132,549.9,131.9z"/>
			<path class="st1" d="M472.2,127.6l18.2-18.1l0.2-0.2l39.9,43.1l12.9-20.9c0.1,0.2,0.1,0.4,0.2,0.5l-13.1,21.2l-40-43.2l-18,17.9
				C472.4,127.8,472.3,127.7,472.2,127.6z"/>
			<path class="st1" d="M272.5,179l32.3-15l0.1,0l43.7,6.9l18.1-38.7l15.8-32.3c0.1,0.1,0.2,0.2,0.4,0.3l-15.8,32.2L349,171.2
				l-0.1,0.2l-43.9-6.9l-32.3,15.1C272.6,179.3,272.6,179.1,272.5,179z"/>
			<path class="st1" d="M192.2,97.3l13.4-8.4l33.3,59.8l26.8,29c-0.1,0.1-0.2,0.3-0.3,0.4L238.6,149l0,0l-33.1-59.4l-13,8.2
				C192.4,97.6,192.3,97.4,192.2,97.3z"/>
			<path class="st1" d="M89.8,165.3l77.5-46.5l18.7-16.8c0.1,0.1,0.2,0.2,0.3,0.3l-18.7,16.8l-17.9,10
				C149.6,129.1,89.8,165.5,89.8,165.3z"/>
			<path class="st1" d="M142.4,127.3c-0.1,0.1-0.2,0.3-0.3,0.4"/>
			<path class="st1" d="M388,94.4l44.3-18.8l0.2-0.1l34.2,51.3c-0.1,0.1-0.3,0.2-0.4,0.3l-34-51l-43.9,18.6
				C388.2,94.6,388.1,94.5,388,94.4z"/>
			<path class="st1" d="M611.7,145.8c0-0.1-0.1-0.1-0.1-0.2l22.2-20.2l36.6,39.9l-0.4,0.3l-36.3-39.5L611.9,146
				C611.8,146,611.8,145.9,611.7,145.8z"/>
		</g>
		<path class="st1" d="M629.8,126c0.3,2.2,2.3,3.8,4.5,3.5c2.2-0.3,3.8-2.3,3.5-4.5c-0.3-2.2-2.3-3.8-4.5-3.5
			C631,121.7,629.5,123.8,629.8,126z"/>
		<g>
			<path class="st1" d="M604,149.1c-0.3-2.4,1.4-4.6,3.8-4.9c2.4-0.3,4.6,1.4,4.9,3.8c0.3,2.4-1.4,4.6-3.8,4.9
				C606.6,153.2,604.4,151.5,604,149.1z M604.8,149c0.3,2,2.1,3.4,4.1,3.1c2-0.3,3.4-2.1,3.1-4.1c-0.3-2-2.1-3.4-4.1-3.1
				C605.9,145.1,604.5,147,604.8,149z"/>
		</g>
		<g>
			<path class="st1" d="M542.5,130.1c-0.3-2.3,1.3-4.4,3.6-4.7c2.3-0.3,4.4,1.3,4.7,3.6c0.3,2.3-1.3,4.4-3.6,4.7
				C545,134,542.9,132.4,542.5,130.1z M543.2,130c0.3,1.9,2,3.3,4,3c1.9-0.3,3.3-2,3-4c-0.3-1.9-2-3.3-4-3
				C544.3,126.3,543,128.1,543.2,130z"/>
		</g>
		<g>
			<path class="st1" d="M464.8,130.8c-0.3-2.3,1.3-4.4,3.6-4.7c2.3-0.3,4.4,1.3,4.7,3.6c0.3,2.3-1.3,4.4-3.6,4.7
				C467.3,134.7,465.2,133.1,464.8,130.8z M465.5,130.7c0.3,1.9,2,3.3,4,3c1.9-0.3,3.3-2,3-4c-0.3-1.9-2-3.3-4-3
				C466.6,127,465.3,128.8,465.5,130.7z"/>
		</g>
		<g>
			<path class="st1" d="M380.9,97.5c-0.3-2.3,1.3-4.4,3.6-4.7c2.3-0.3,4.4,1.3,4.7,3.6c0.3,2.3-1.3,4.4-3.6,4.7
				C383.3,101.4,381.2,99.8,380.9,97.5z M381.6,97.4c0.3,1.9,2,3.3,4,3c1.9-0.3,3.3-2,3-4c-0.3-1.9-2-3.3-4-3
				C382.7,93.7,381.3,95.5,381.6,97.4z"/>
		</g>
		<g>
			<path class="st1" d="M264.6,180.7c-0.3-2.3,1.3-4.4,3.6-4.7c2.3-0.3,4.4,1.3,4.7,3.6c0.3,2.3-1.3,4.4-3.6,4.7
				C267,184.6,264.9,183,264.6,180.7z M265.3,180.6c0.3,1.9,2,3.3,4,3c1.9-0.3,3.3-2,3-4c-0.3-1.9-2-3.3-4-3
				C266.4,176.9,265,178.6,265.3,180.6z"/>
		</g>
		<g>
			<path class="st1" d="M184.6,99.9c-0.3-2.3,1.3-4.4,3.6-4.7c2.3-0.3,4.4,1.3,4.7,3.6c0.3,2.3-1.3,4.4-3.6,4.7
				C187.1,103.9,184.9,102.2,184.6,99.9z M185.3,99.8c0.3,1.9,2,3.3,4,3c1.9-0.3,3.3-2,3-4c-0.3-1.9-2-3.3-4-3
				C186.4,96.2,185.1,97.9,185.3,99.8z"/>
		</g>
		<path class="st1" d="M589.4,174c0.2,1.7,1.8,2.9,3.5,2.7c1.7-0.2,2.9-1.8,2.7-3.5c-0.2-1.7-1.8-2.9-3.5-2.7
			C590.4,170.7,589.2,172.3,589.4,174z"/>
		<path class="st1" d="M527.4,152.9c0.2,1.7,1.8,2.9,3.5,2.7c1.7-0.2,2.9-1.8,2.7-3.5c-0.2-1.7-1.8-2.9-3.5-2.7
			C528.3,149.6,527.1,151.2,527.4,152.9z"/>
		<path class="st1" d="M487.5,110.4c0.2,1.7,1.8,2.9,3.5,2.7c1.7-0.2,2.9-1.8,2.7-3.5c-0.2-1.7-1.8-2.9-3.5-2.7
			C488.5,107.1,487.3,108.7,487.5,110.4z"/>
		<path class="st1" d="M429.3,76.7c0.2,1.7,1.8,2.9,3.5,2.7c1.7-0.2,2.9-1.8,2.7-3.5c-0.2-1.7-1.8-2.9-3.5-2.7
			C430.3,73.4,429.1,75,429.3,76.7z"/>
		<path class="st1" d="M345.7,171.5c0.2,1.7,1.8,2.9,3.5,2.7c1.7-0.2,2.9-1.8,2.7-3.5c-0.2-1.7-1.8-2.9-3.5-2.7
			C346.6,168.2,345.4,169.8,345.7,171.5z"/>
		<path class="st1" d="M202,90.8c0.2,1.7,1.8,2.9,3.5,2.7c1.7-0.2,2.9-1.8,2.7-3.5c-0.2-1.7-1.8-2.9-3.5-2.7
			C203,87.5,201.8,89.1,202,90.8z"/>
		<path class="st1" d="M164.8,118.9c0.2,1.7,1.8,2.9,3.5,2.7c1.7-0.2,2.9-1.8,2.7-3.5c-0.2-1.7-1.8-2.9-3.5-2.7
			C165.7,115.6,164.5,117.2,164.8,118.9z"/>
		<path class="st1" d="M300.5,164.5c0.3,2.1,2.2,3.5,4.2,3.2c2.1-0.3,3.5-2.2,3.2-4.2c-0.3-2.1-2.2-3.5-4.2-3.2
			C301.7,160.5,300.2,162.4,300.5,164.5z"/>
		<path class="st1" d="M235.5,148.5c0.3,2.1,2.2,3.5,4.2,3.2c2.1-0.3,3.5-2.2,3.2-4.2c-0.3-2.1-2.2-3.5-4.2-3.2
			C236.6,144.6,235.2,146.5,235.5,148.5z"/>
	</g>
	<g class="st3">
		<g>
			<path class="st1" d="M116.6,173.2c0,0.1-0.1,0.1-0.1,0.2l-52.1-48.2l-15.1,26.4c-0.1-0.1-0.3-0.2-0.5-0.3l15.5-27l52.6,48.7
				C116.8,173,116.7,173.1,116.6,173.2z"/>
			<path class="st1" d="M209.2,175.4l-21,22.1l-0.2,0.2l-49-49.9l-14.6,25.3c-0.1-0.2-0.2-0.4-0.3-0.6L139,147l49.1,50l20.8-21.9
				C209,175.2,209.1,175.3,209.2,175.4z"/>
			<path class="st1" d="M444.9,107L407,126.1l-0.1,0l-52.2-6.6l-20.2,46.7l-18.8,14.6c-0.1-0.1-0.3-0.3-0.5-0.4L334,166l20.2-46.9
				l0.1-0.2l52.5,6.7l37.9-19.1C444.8,106.7,444.8,106.9,444.9,107z"/>
			<path class="st1" d="M543.3,201.3l-15.7,10.5l-41.8-69.9L453,108.4c0.1-0.2,0.2-0.3,0.3-0.5l33.1,33.6l0,0l41.5,69.4l15.1-10.2
				C543.1,201,543.2,201.1,543.3,201.3z"/>
			<path class="st1" d="M593,162.3l-20.8,12.5l-21.6,20.6c-0.1-0.1-0.3-0.3-0.4-0.4l21.7-20.7l20.9-12.5
				C592.8,161.9,592.9,162.1,593,162.3z"/>
			<path class="st1" d="M669.5,154.9l30.8,11.7l-0.2,0.5l-30.8-11.7C669.4,155.3,669.4,155.1,669.5,154.9z"/>
			<path class="st1" d="M662.8,157.7l-22.9,39l-38.4-33c0.1-0.2,0.2-0.3,0.3-0.5l37.9,32.6l22.6-38.4
				C662.5,157.5,662.6,157.7,662.8,157.7z"/>
			<path class="st1" d="M309.5,187.6l-45-1.4l-0.2,0.1l-48.4-10.1c0.2-0.1,0.3-0.3,0.4-0.4l48.2,9.8l44.5,1.6
				C309.2,187.3,309.3,187.5,309.5,187.6z"/>
			<path class="st1" d="M42.6,158.8c0.1,0.1,0.1,0.1,0.2,0.2l-25.6,24.9l-45-46.1l0.4-0.4l44.6,45.7l25.3-24.5
				C42.5,158.7,42.6,158.8,42.6,158.8z"/>
		</g>
		<path class="st1" d="M21.9,183.1c-0.4-2.6-2.9-4.4-5.5-3.9c-2.6,0.4-4.4,2.9-3.9,5.5c0.4,2.6,2.9,4.4,5.5,3.9
			C20.6,188.2,22.4,185.7,21.9,183.1z"/>
		<g>
			<path class="st1" d="M51.7,154.6c0.5,2.8-1.5,5.5-4.3,6c-2.8,0.5-5.5-1.5-6-4.3c-0.5-2.8,1.5-5.5,4.3-6
				C48.5,149.9,51.2,151.8,51.7,154.6z M50.8,154.8c-0.4-2.4-2.6-4-5-3.6c-2.4,0.4-4,2.6-3.6,5c0.4,2.4,2.6,4,5,3.6
				C49.6,159.4,51.2,157.2,50.8,154.8z"/>
		</g>
		<g>
			<path class="st1" d="M125.5,175c0.5,2.7-1.4,5.3-4.1,5.8c-2.7,0.5-5.3-1.4-5.8-4.1c-0.5-2.7,1.4-5.3,4.1-5.8
				C122.5,170.4,125,172.3,125.5,175z M124.7,175.1c-0.4-2.3-2.5-3.8-4.8-3.4c-2.3,0.4-3.8,2.5-3.4,4.8c0.4,2.3,2.5,3.8,4.8,3.4
				C123.5,179.6,125.1,177.4,124.7,175.1z"/>
		</g>
		<g>
			<path class="st1" d="M217.9,171.3c0.5,2.7-1.4,5.3-4.1,5.8c-2.7,0.5-5.3-1.4-5.8-4.1c-0.5-2.7,1.4-5.3,4.1-5.8
				C214.8,166.7,217.4,168.6,217.9,171.3z M217.1,171.5c-0.4-2.3-2.5-3.8-4.8-3.4c-2.3,0.4-3.8,2.5-3.4,4.8c0.4,2.3,2.5,3.8,4.8,3.4
				C215.9,175.9,217.4,173.7,217.1,171.5z"/>
		</g>
		<g>
			<path class="st1" d="M317.8,183.6c0.5,2.7-1.4,5.3-4.1,5.8c-2.7,0.5-5.3-1.4-5.8-4.1c-0.5-2.7,1.4-5.3,4.1-5.8
				C314.7,179,317.3,180.8,317.8,183.6z M317,183.7c-0.4-2.3-2.5-3.8-4.8-3.4c-2.3,0.4-3.8,2.5-3.4,4.8c0.4,2.3,2.5,3.8,4.8,3.4
				C315.8,188.1,317.3,186,317,183.7z"/>
		</g>
		<g>
			<path class="st1" d="M454.3,104.8c0.5,2.7-1.4,5.3-4.1,5.8c-2.7,0.5-5.3-1.4-5.8-4.1c-0.5-2.7,1.4-5.3,4.1-5.8
				C451.2,100.2,453.8,102,454.3,104.8z M453.4,104.9c-0.4-2.3-2.5-3.8-4.8-3.4c-2.3,0.4-3.8,2.5-3.4,4.8c0.4,2.3,2.5,3.8,4.8,3.4
				C452.3,109.3,453.8,107.2,453.4,104.9z"/>
		</g>
		<g>
			<path class="st1" d="M552.3,197.9c0.5,2.7-1.4,5.3-4.1,5.8c-2.7,0.5-5.3-1.4-5.8-4.1c-0.5-2.7,1.4-5.3,4.1-5.8
				C549.2,193.3,551.8,195.1,552.3,197.9z M551.4,198c-0.4-2.3-2.5-3.8-4.8-3.4c-2.3,0.4-3.8,2.5-3.4,4.8c0.4,2.3,2.5,3.8,4.8,3.4
				C550.3,202.4,551.8,200.3,551.4,198z"/>
		</g>
		<g>
			<path class="st1" d="M602.4,160.1c0.5,2.7-1.4,5.3-4.1,5.8c-2.7,0.5-5.3-1.4-5.8-4.1c-0.5-2.7,1.4-5.3,4.1-5.8
				C599.4,155.5,602,157.4,602.4,160.1z M601.6,160.2c-0.4-2.3-2.5-3.8-4.8-3.4c-2.3,0.4-3.8,2.5-3.4,4.8c0.4,2.3,2.5,3.8,4.8,3.4
				C600.4,164.7,602,162.5,601.6,160.2z"/>
		</g>
		<g>
			<path class="st1" d="M670.1,152.9c0.5,2.7-1.4,5.3-4.1,5.8c-2.7,0.5-5.3-1.4-5.8-4.1c-0.5-2.7,1.4-5.3,4.1-5.8
				C667.1,148.3,669.6,150.2,670.1,152.9z M669.3,153c-0.4-2.3-2.5-3.8-4.8-3.4c-2.3,0.4-3.8,2.5-3.4,4.8c0.4,2.3,2.5,3.8,4.8,3.4
				C668.1,157.5,669.7,155.3,669.3,153z"/>
		</g>
		<path class="st1" d="M68.1,124.5c-0.3-2-2.2-3.4-4.3-3c-2,0.3-3.4,2.2-3,4.3c0.3,2,2.2,3.4,4.3,3
			C67.1,128.4,68.5,126.5,68.1,124.5z"/>
		<path class="st1" d="M142.7,147.3c-0.3-2-2.2-3.4-4.3-3c-2,0.3-3.4,2.2-3,4.3c0.3,2,2.2,3.4,4.3,3
			C141.7,151.3,143.1,149.3,142.7,147.3z"/>
		<path class="st1" d="M191.7,196.5c-0.3-2-2.2-3.4-4.3-3c-2,0.3-3.4,2.2-3,4.3c0.3,2,2.2,3.4,4.3,3
			C190.6,200.4,192,198.5,191.7,196.5z"/>
		<path class="st1" d="M268,184.8c-0.3-2-2.2-3.4-4.3-3c-2,0.3-3.4,2.2-3,4.3c0.3,2,2.2,3.4,4.3,3
			C266.9,188.7,268.3,186.8,268,184.8z"/>
		<path class="st1" d="M358.2,118.6c-0.3-2-2.2-3.4-4.3-3c-2,0.3-3.4,2.2-3,4.3c0.3,2,2.2,3.4,4.3,3
			C357.1,122.5,358.5,120.6,358.2,118.6z"/>
		<path class="st1" d="M531.9,209.4c-0.3-2-2.2-3.4-4.3-3c-2,0.3-3.4,2.2-3,4.3c0.3,2,2.2,3.4,4.3,3
			C530.9,213.3,532.2,211.4,531.9,209.4z"/>
		<path class="st1" d="M575.2,174.6c-0.3-2-2.2-3.4-4.3-3c-2,0.3-3.4,2.2-3,4.3c0.3,2,2.2,3.4,4.3,3
			C574.2,178.5,575.6,176.6,575.2,174.6z"/>
		<path class="st1" d="M643.5,194.6c-0.3-2-2.2-3.4-4.3-3c-2,0.3-3.4,2.2-3,4.3c0.3,2,2.2,3.4,4.3,3
			C642.4,198.5,643.8,196.6,643.5,194.6z"/>
		<path class="st1" d="M412.1,125.3c-0.4-2.4-2.7-4.1-5.1-3.7c-2.4,0.4-4.1,2.7-3.7,5.1c0.4,2.4,2.7,4.1,5.1,3.7
			C410.8,130.1,412.5,127.8,412.1,125.3z"/>
		<path class="st1" d="M490.1,141.9c-0.4-2.4-2.7-4.1-5.1-3.7c-2.4,0.4-4.1,2.7-3.7,5.1c0.4,2.4,2.7,4.1,5.1,3.7
			C488.8,146.7,490.5,144.4,490.1,141.9z"/>
	</g>
</g>
<g>
	<path class="st4" d="M396.3,153.3h1.2v-2l1.4-0.2c2.4-0.7,2.4-2.6,2.4-2.6c0-2.2-1.7-2.5-1.7-2.5c0.6-0.3,1.7-2,0.5-3.2
		c-1.1-1.1-2.6-0.9-2.6-0.9v-2.1h-1.2v2.1h-0.9v-2.1h-1.3v2.2h-2.6v1.4h1.7v6.6l-1.5,0v1.5h2.4v1.8h1.3v-2h0.9V153.3z"/>
	<path class="st4" d="M395.4,145.9h1.2c0,0,1.8-0.1,1.7-1.4c-0.2-1.3-1.7-1.2-1.7-1.2h-1.2V145.9z"/>
	<path class="st4" d="M395.4,150h1.9c0,0,1.9-0.3,1.6-1.7c-0.2-1.2-1.6-1.2-1.6-1.2h-1.9V150z"/>
</g>
<g>
	<path class="st4" d="M632.8,150.5h1.2v-2l1.4-0.2c2.4-0.7,2.4-2.6,2.4-2.6c0-2.2-1.7-2.5-1.7-2.5c0.6-0.3,1.7-2,0.5-3.2
		c-1.1-1.1-2.6-0.9-2.6-0.9V137h-1.2v2.1h-0.9V137h-1.3v2.2H628v1.4h1.7v6.6l-1.5,0v1.5h2.4v1.8h1.3v-2h0.9V150.5z"/>
	<path class="st4" d="M631.9,143h1.2c0,0,1.8-0.1,1.7-1.4c-0.2-1.3-1.7-1.2-1.7-1.2h-1.2V143z"/>
	<path class="st4" d="M631.9,147.1h1.9c0,0,1.9-0.3,1.6-1.7c-0.2-1.2-1.6-1.2-1.6-1.2h-1.9V147.1z"/>
</g>
<g>
	<path class="st4" d="M57.6,161.9h1.2v-2l1.4-0.2c2.4-0.7,2.4-2.6,2.4-2.6c0-2.2-1.7-2.5-1.7-2.5c0.6-0.3,1.7-2,0.5-3.2
		c-1.1-1.1-2.6-0.9-2.6-0.9v-2.1h-1.2v2.1h-0.9v-2.1h-1.3v2.2h-2.6v1.4h1.7v6.6l-1.5,0v1.5h2.4v1.8h1.3v-2h0.9V161.9z"/>
	<path class="st4" d="M56.7,154.5h1.2c0,0,1.8-0.1,1.7-1.4c-0.2-1.3-1.7-1.2-1.7-1.2h-1.2V154.5z"/>
	<path class="st4" d="M56.7,158.6h1.9c0,0,1.9-0.3,1.6-1.7c-0.2-1.2-1.6-1.2-1.6-1.2h-1.9V158.6z"/>
</g>
</svg>
