<svg width="2730" height="828" viewBox="0 0 2730 828" fill="none" xmlns="http://www.w3.org/2000/svg">
<ellipse cx="413.845" cy="413.845" rx="335.017" ry="266.043" fill="#FFD29D"/>
<path d="M601.06 493.729C601.06 543.289 493.014 571.501 413.844 571.501C334.675 571.501 226.629 543.289 226.629 493.729C226.629 444.169 272.432 453.784 305.457 433.552C345.104 409.264 367.349 384.285 413.844 384.285C460.34 384.285 482.585 409.264 522.232 433.552C555.257 453.784 601.06 444.169 601.06 493.729Z" fill="#D48A56"/>
<path d="M226.629 305.457C145.001 305.457 78.8271 371.629 78.8271 453.258C78.8271 508.039 108.633 555.857 152.906 581.388C143.462 567.29 137.948 550.331 137.948 532.086C137.948 483.109 177.65 443.405 226.629 443.405C264.724 443.405 295.603 412.524 295.603 374.431C295.603 336.338 264.724 305.457 226.629 305.457Z" fill="#A56B43"/>
<path d="M601.061 305.457C682.688 305.457 748.862 371.621 748.862 453.24C748.862 508.014 719.057 555.826 674.783 581.353C684.228 567.257 689.742 550.3 689.742 532.057C689.742 483.086 650.039 443.387 601.061 443.387C562.965 443.387 532.086 412.51 532.086 374.422C532.086 336.334 562.965 305.457 601.061 305.457Z" fill="#A56B43"/>
<path fill-rule="evenodd" clip-rule="evenodd" d="M413.845 0C266.043 -1.29108e-05 1.99814e-05 185.285 0 413.845C-1.99814e-05 642.405 266.043 827.69 413.845 827.69C561.647 827.69 827.69 642.405 827.69 413.845C827.69 185.285 561.647 1.29108e-05 413.845 0ZM413.858 679.893C598.883 679.893 748.876 560.782 748.876 413.85C748.876 266.918 598.883 147.807 413.858 147.807C228.834 147.807 78.8412 266.918 78.8412 413.85C78.8412 560.782 228.834 679.893 413.858 679.893Z" fill="#EB995F"/>
<ellipse cx="601.061" cy="374.431" rx="39.4138" ry="39.4138" transform="rotate(-45 601.061 374.431)" fill="#2F1F13"/>
<path d="M423.695 499.085C423.695 495.039 426.706 491.667 430.644 490.735C455.111 484.944 472.962 466.828 472.962 445.376C472.962 423.924 423.698 423.698 413.838 423.698C403.978 423.699 354.721 423.924 354.721 445.376C354.721 466.827 372.572 484.943 397.039 490.735C400.976 491.667 403.988 495.039 403.988 499.085C403.988 503.617 400.255 507.271 395.728 507.078C350.559 505.157 315.309 495.857 282.5 479.453C275.199 475.802 266.321 478.761 262.67 486.063C259.02 493.364 261.979 502.242 269.28 505.892C311.039 526.772 355.868 537.013 413.838 537.013C471.809 537.013 516.637 526.772 558.396 505.892C565.698 502.242 568.657 493.364 565.006 486.063C561.356 478.761 552.478 475.802 545.177 479.453C512.369 495.856 477.121 505.157 431.955 507.078C427.427 507.271 423.695 503.616 423.695 499.085Z" fill="#5E3D26"/>
<ellipse cx="226.629" cy="374.431" rx="39.4138" ry="39.4138" transform="rotate(135 226.629 374.431)" fill="#2F1F13"/>
<circle cx="241.409" cy="374.432" r="14.7802" transform="rotate(90 241.409 374.432)" fill="#FBEBDF"/>
<ellipse cx="586.28" cy="374.431" rx="14.7802" ry="14.7801" transform="rotate(-90 586.28 374.431)" fill="#FBEBDF"/>
<path d="M1205.96 299.229L1106.78 526.071H1065.15L965.638 299.229H1011.49L1087.26 474.222L1163.69 299.229H1205.96Z" fill="#FFD29D"/>
<path d="M1382.82 353.023V526.071H1344.12V503.711C1337.4 511.921 1329.05 518.078 1319.08 522.183C1309.32 526.287 1298.48 528.34 1286.56 528.34C1269.65 528.34 1254.47 524.667 1241.03 517.322C1227.81 509.976 1217.4 499.606 1209.81 486.212C1202.44 472.817 1198.75 457.263 1198.75 439.547C1198.75 421.832 1202.44 406.385 1209.81 393.207C1217.4 379.812 1227.81 369.442 1241.03 362.097C1254.47 354.752 1269.65 351.079 1286.56 351.079C1297.83 351.079 1308.13 353.023 1317.45 356.912C1326.99 360.801 1335.23 366.526 1342.17 374.087V353.023H1382.82ZM1291.11 493.665C1306.07 493.665 1318.43 488.696 1328.19 478.759C1337.94 468.821 1342.82 455.75 1342.82 439.547C1342.82 423.344 1337.94 410.274 1328.19 400.336C1318.43 390.398 1306.07 385.429 1291.11 385.429C1276.15 385.429 1263.8 390.398 1254.04 400.336C1244.5 410.274 1239.73 423.344 1239.73 439.547C1239.73 455.75 1244.5 468.821 1254.04 478.759C1263.8 488.696 1276.15 493.665 1291.11 493.665Z" fill="#FFD29D"/>
<path d="M1534.54 351.079C1556.44 351.079 1574 357.452 1587.23 370.198C1600.45 382.945 1607.07 401.848 1607.07 426.909V526.071H1566.41V432.094C1566.41 416.971 1562.84 405.629 1555.68 398.068C1548.53 390.29 1538.34 386.401 1525.11 386.401C1510.15 386.401 1498.34 390.938 1489.67 400.012C1480.99 408.87 1476.66 421.724 1476.66 438.575V526.071H1436.01V353.023H1474.71V375.383C1481.43 367.39 1489.88 361.341 1500.07 357.236C1510.26 353.131 1521.75 351.079 1534.54 351.079Z" fill="#FFD29D"/>
<path d="M1658.63 353.023H1699.28V526.071H1658.63V353.023ZM1679.12 324.506C1671.75 324.506 1665.57 322.238 1660.58 317.701C1655.6 312.948 1653.1 307.115 1653.1 300.201C1653.1 293.288 1655.6 287.563 1660.58 283.026C1665.57 278.273 1671.75 275.897 1679.12 275.897C1686.49 275.897 1692.67 278.165 1697.66 282.702C1702.64 287.023 1705.14 292.532 1705.14 299.229C1705.14 306.359 1702.64 312.408 1697.66 317.377C1692.89 322.13 1686.71 324.506 1679.12 324.506Z" fill="#FFD29D"/>
<path d="M1850.2 516.674C1845.43 520.562 1839.58 523.479 1832.64 525.423C1825.92 527.368 1818.76 528.34 1811.18 528.34C1792.1 528.34 1777.35 523.371 1766.95 513.433C1756.54 503.495 1751.34 489.02 1751.34 470.009V314.784H1791.99V354.32H1838.49V386.726H1791.99V469.037C1791.99 477.462 1794.05 483.944 1798.17 488.48C1802.5 492.801 1808.47 494.962 1816.05 494.962C1825.16 494.962 1832.75 492.585 1838.82 487.832L1850.2 516.674Z" fill="#FFD29D"/>
<path d="M2051.93 353.023V499.822C2051.93 560.746 2021.9 591.207 1961.85 591.207C1946.02 591.207 1930.85 589.047 1916.32 584.726C1902.01 580.621 1890.2 574.572 1880.87 566.579L1899.08 536.117C1906.46 542.382 1915.45 547.351 1926.08 551.024C1936.7 554.697 1947.87 556.533 1959.57 556.533C1977.35 556.533 1990.36 552.212 1998.6 543.571C2007.05 535.145 2011.28 522.075 2011.28 504.359V496.258C2004.78 503.387 1996.86 508.896 1987.54 512.785C1978.22 516.458 1968.14 518.294 1957.3 518.294C1934.1 518.294 1915.78 511.921 1902.34 499.174C1889.11 486.428 1882.5 467.308 1882.5 441.816V353.023H1923.15V436.631C1923.15 451.97 1926.62 463.528 1933.56 471.305C1940.71 478.867 1950.79 482.647 1963.8 482.647C1978.33 482.647 1989.82 478.218 1998.27 469.361C2006.94 460.503 2011.28 447.649 2011.28 430.798V353.023H2051.93Z" fill="#FFD29D"/>
<path d="M2264.51 410.057H2304.51V526.071H2269.71V512.785C2253.45 523.803 2233.07 529.312 2208.57 529.312C2187.54 529.312 2168.25 524.775 2150.69 515.701C2133.12 506.627 2119.03 493.449 2108.41 476.166C2098 458.883 2092.8 438.251 2092.8 414.27C2092.8 391.586 2098.11 371.278 2108.73 353.347C2119.36 335.2 2133.99 321.157 2152.64 311.219C2171.5 301.065 2192.64 295.988 2216.05 295.988C2235.13 295.988 2252.47 299.121 2268.08 305.386C2283.69 311.651 2296.81 320.833 2307.43 332.931L2280.77 358.856C2263.42 341.573 2242.5 332.931 2218 332.931C2201.96 332.931 2187.65 336.388 2175.08 343.301C2162.72 349.998 2152.96 359.504 2145.81 371.818C2138.87 384.133 2135.4 398.175 2135.4 413.946C2135.4 430.581 2138.87 444.948 2145.81 457.046C2152.96 468.928 2162.39 478.002 2174.1 484.267C2185.81 490.316 2198.6 493.341 2212.47 493.341C2222.23 493.341 2231.55 491.829 2240.44 488.804C2249.55 485.78 2257.57 481.351 2264.51 475.518V410.057Z" fill="#EB995F"/>
<path d="M2438.97 493.989C2457.83 493.989 2473.55 487.724 2486.12 475.194L2507.59 500.146C2500 509.436 2490.24 516.457 2478.32 521.21C2466.39 525.963 2452.95 528.339 2437.99 528.339C2418.91 528.339 2402.11 524.559 2387.59 516.997C2373.06 509.436 2361.79 498.958 2353.76 485.564C2345.96 471.953 2342.06 456.614 2342.06 439.547C2342.06 422.696 2345.85 407.573 2353.44 394.179C2361.24 380.568 2371.87 369.982 2385.31 362.421C2398.97 354.859 2414.36 351.079 2431.49 351.079C2447.75 351.079 2462.49 354.643 2475.72 361.773C2489.16 368.686 2499.78 378.732 2507.59 391.91C2515.39 404.873 2519.29 420.103 2519.29 437.603L2386.28 463.527C2390.4 473.465 2397.02 481.027 2406.12 486.212C2415.23 491.397 2426.18 493.989 2438.97 493.989ZM2431.49 383.485C2416.53 383.485 2404.39 388.345 2395.06 398.067C2385.96 407.789 2381.41 420.859 2381.41 437.279V437.603L2479.62 418.807C2476.8 408.221 2471.05 399.688 2462.38 393.206C2453.93 386.725 2443.63 383.485 2431.49 383.485Z" fill="#EB995F"/>
<path d="M2656.89 351.079C2678.78 351.079 2696.34 357.452 2709.57 370.198C2722.79 382.944 2729.41 401.848 2729.41 426.909V526.071H2688.76V432.094C2688.76 416.971 2685.18 405.629 2678.02 398.067C2670.87 390.29 2660.68 386.401 2647.46 386.401C2632.5 386.401 2620.68 390.938 2612.01 400.012C2603.34 408.869 2599 421.724 2599 438.575V526.071H2558.35V353.023H2597.05V375.383C2603.77 367.39 2612.22 361.34 2622.41 357.236C2632.6 353.131 2644.09 351.079 2656.89 351.079Z" fill="#EB995F"/>
</svg>
